<svg width="172" height="172" xmlns="http://www.w3.org/2000/svg">
 <style type="text/css">.st0{fill-rule:evenodd;clip-rule:evenodd;}</style>

 <g>
  <title>background</title>
  <rect x="-1" y="-1" width="174" height="174" id="canvas_background" fill="none"/>
 </g>
 <g>
  <title>Layer 1</title>
  <g id="svg_1">
   <path stroke="null" class="st0" d="m72.504586,21.048299c-12.162322,-8.030952 -24.188683,-9.802657 -36.622927,-6.737141c2.719218,-6.166 6.810406,-10.210616 11.618478,-12.110536c6.810406,-2.692525 17.959201,-0.780949 22.34703,4.977092c2.249535,2.9373 3.374303,7.296627 2.657418,13.870585l0,0zm40.726474,44.432497c-0.333722,-1.305467 0.531484,-2.610934 1.915813,-2.925644c1.384329,-0.314711 2.768659,0.501206 3.102381,1.806673c0.667444,2.645902 1.816932,4.69735 3.349583,6.177656c1.569731,1.503618 3.584424,2.471062 5.98228,2.913989c1.396689,0.256431 2.298975,1.52693 2.027054,2.844053c-0.271922,1.317123 -1.619171,2.168007 -3.01586,1.911576c-3.411383,-0.641077 -6.340723,-2.051448 -8.652058,-4.277735c-2.212455,-2.121384 -3.819266,-4.918813 -4.709192,-8.450567l0,0zm-86.495862,0c-0.333722,-1.305467 0.531484,-2.610934 1.915813,-2.925644c1.384329,-0.314711 2.768659,0.501206 3.102381,1.806673c0.667444,2.645902 1.816932,4.69735 3.349583,6.177656c1.569731,1.503618 3.584424,2.471062 5.98228,2.913989c1.396689,0.256431 2.298975,1.52693 2.027054,2.844053c-0.271922,1.317123 -1.619171,2.168007 -3.01586,1.911576c-3.411383,-0.641077 -6.340723,-2.051448 -8.652058,-4.277735c-2.212455,-2.121384 -3.819266,-4.918813 -4.709192,-8.450567l0,0zm59.031757,-8.870181c3.460823,0 6.266562,2.575966 6.266562,5.746385c0,3.17042 -2.805739,5.746385 -6.266562,5.746385c-3.460823,0 -6.266562,-2.575966 -6.266562,-5.746385c0,-3.17042 2.805739,-5.746385 6.266562,-5.746385l0,0zm-42.815328,-15.315924c12.360083,0 22.384111,9.184892 22.384111,20.526135c0,11.329587 -10.024027,20.526135 -22.384111,20.526135c-12.360083,0 -22.384111,-9.184892 -22.384111,-20.526135c0,-11.341243 10.011667,-20.526135 22.384111,-20.526135l0,0zm86.495862,0c12.360083,0 22.384111,9.184892 22.384111,20.526135c0,11.329587 -10.024027,20.526135 -22.384111,20.526135c-12.360083,0 -22.384111,-9.184892 -22.384111,-20.526135c0,-11.341243 10.011667,-20.526135 22.384111,-20.526135l0,0zm-30.072082,-20.246392c12.162322,-8.030952 24.188683,-9.802657 36.610566,-6.737141c-2.719218,-6.166 -6.810406,-10.210616 -11.618478,-12.110536c-6.810406,-2.692525 -17.959201,-0.780949 -22.33467,4.977092c-2.249535,2.9373 -3.374303,7.296627 -2.657418,13.870585l0,0zm43.581653,0.233119c-4.227148,-4.102896 -11.074635,-5.956193 -20.554818,-5.55989c-10.740912,0.501206 -22.087469,4.732317 -25.733693,14.325168c-3.052941,-6.317527 -18.404164,-6.317527 -21.444744,0c-3.646225,-9.59285 -14.992781,-13.835618 -25.733693,-14.325168c-9.480184,-0.396302 -16.31531,1.46865 -20.554818,5.55989c-5.95756,7.529746 -17.749079,27.204997 -18.737886,36.821159c-4.029387,39.024134 55.323732,48.815136 64.840997,8.520502c5.401356,9.033364 16.40183,9.033364 21.803187,0c9.517264,40.306289 68.870384,30.503632 64.840997,-8.520502c-0.988807,-9.616162 -12.780326,-29.291413 -18.725526,-36.821159l0,0z" id="svg_2"/>
  </g>
  <text xml:space="preserve" text-anchor="start" font-family="Helvetica, Arial, sans-serif" font-size="45" id="svg_3" y="160.69375" x="-3.75" fill-opacity="null" stroke-opacity="null" stroke-width="0" stroke="null" fill="#000000">Discover</text>
 </g>
</svg>