<svg width="122.5" height="122.5" xmlns="http://www.w3.org/2000/svg">
 <style type="text/css">.st0{fill-rule:evenodd;clip-rule:evenodd;}</style>

 <g>
  <title>background</title>
  <rect fill="none" id="canvas_background" height="124.5" width="124.5" y="-1" x="-1"/>
 </g>
 <g>
  <title>Layer 1</title>
  <g id="svg_1">
   <path id="svg_2" d="m50.57,17.20005c-9.84,-6.89 -19.57,-8.41 -29.63,-5.78c2.2,-5.29 5.51,-8.76 9.4,-10.39c5.51,-2.31 14.53,-0.67 18.08,4.27c1.82,2.52 2.73,6.26 2.15,11.9l0,0zm32.95,38.12c-0.27,-1.12 0.43,-2.24 1.55,-2.51c1.12,-0.27 2.24,0.43 2.51,1.55c0.54,2.27 1.47,4.03 2.71,5.3c1.27,1.29 2.9,2.12 4.84,2.5c1.13,0.22 1.86,1.31 1.64,2.44c-0.22,1.13 -1.31,1.86 -2.44,1.64c-2.76,-0.55 -5.13,-1.76 -7,-3.67c-1.79,-1.82 -3.09,-4.22 -3.81,-7.25l0,0zm-69.98,0c-0.27,-1.12 0.43,-2.24 1.55,-2.51c1.12,-0.27 2.24,0.43 2.51,1.55c0.54,2.27 1.47,4.03 2.71,5.3c1.27,1.29 2.9,2.12 4.84,2.5c1.13,0.22 1.86,1.31 1.64,2.44c-0.22,1.13 -1.31,1.86 -2.44,1.64c-2.76,-0.55 -5.13,-1.76 -7,-3.67c-1.79,-1.82 -3.09,-4.22 -3.81,-7.25l0,0zm47.76,-7.61c2.8,0 5.07,2.21 5.07,4.93c0,2.72 -2.27,4.93 -5.07,4.93c-2.8,0 -5.07,-2.21 -5.07,-4.93c0,-2.72 2.27,-4.93 5.07,-4.93l0,0zm-34.64,-13.14c10,0 18.11,7.88 18.11,17.61c0,9.72 -8.11,17.61 -18.11,17.61c-10,0 -18.11,-7.88 -18.11,-17.61c0,-9.73 8.1,-17.61 18.11,-17.61l0,0zm69.98,0c10,0 18.11,7.88 18.11,17.61c0,9.72 -8.11,17.61 -18.11,17.61c-10,0 -18.11,-7.88 -18.11,-17.61c0,-9.73 8.1,-17.61 18.11,-17.61l0,0zm-24.33,-17.37c9.84,-6.89 19.57,-8.41 29.62,-5.78c-2.2,-5.29 -5.51,-8.76 -9.4,-10.39c-5.51,-2.31 -14.53,-0.67 -18.07,4.27c-1.82,2.52 -2.73,6.26 -2.15,11.9l0,0zm35.26,0.2c-3.42,-3.52 -8.96,-5.11 -16.63,-4.77c-8.69,0.43 -17.87,4.06 -20.82,12.29c-2.47,-5.42 -14.89,-5.42 -17.35,0c-2.95,-8.23 -12.13,-11.87 -20.82,-12.29c-7.67,-0.34 -13.2,1.26 -16.63,4.77c-4.82,6.46 -14.36,23.34 -15.16,31.59c-3.26,33.48 44.76,41.88 52.46,7.31c4.37,7.75 13.27,7.75 17.64,0c7.7,34.58 55.72,26.17 52.46,-7.31c-0.8,-8.25 -10.34,-25.13 -15.15,-31.59l0,0z" class="st0"/>
  </g>
  <text stroke="#FF0000" transform="matrix(1.3008809948789963,0,0,1.3251411134318218,-31.354345759867613,-40.64677491741223) " xml:space="preserve" text-anchor="start" font-family="Helvetica, Arial, sans-serif" font-size="24" id="svg_3" y="123.184546" x="23.47485" stroke-width="0" fill="#000000">Discover</text>
 </g>
</svg>