<svg width="172" height="172" xmlns="http://www.w3.org/2000/svg">
 <style type="text/css">.st0{fill-rule:evenodd;clip-rule:evenodd;}</style>

 <g>
  <title>background</title>
  <rect x="-1" y="-1" width="174" height="174" id="canvas_background" fill="none"/>
 </g>
 <g>
  <title>Layer 1</title>
  <g id="svg_1"/>
  <text xml:space="preserve" text-anchor="start" font-family="Helvetica, Arial, sans-serif" font-size="45" id="svg_3" y="159.69375" x="-1" fill-opacity="null" stroke-opacity="null" stroke-width="0" stroke="null" fill="#000000">Trending</text>
  <g stroke="null" id="svg_4">
   <path stroke="null" id="svg_4" d="m8.689653,78.599562c-3.482561,3.490072 -3.561115,9.239221 -0.1702,12.837511c3.377823,3.598292 8.942066,3.679456 12.424627,0.175856l36.200312,-36.496947l30.269484,30.179649c3.495654,3.476544 9.059896,3.368324 12.424626,-0.243493l49.449758,-51.701756l0,26.067316c0,5.032197 3.940792,9.103946 8.811142,9.103946s8.811143,-4.071749 8.811143,-9.103946l0,-48.198157l-0.026185,0c0,-2.353768 -0.877187,-4.69401 -2.618467,-6.466101c-1.84602,-1.880309 -4.307379,-2.746064 -6.71637,-2.583734l-43.636758,0c-4.87035,0 -8.811142,4.071749 -8.811142,9.103946c0,5.032195 3.940792,9.103946 8.811142,9.103946l23.08179,0l-43.636759,45.614421l-30.151652,-30.071429c-3.404007,-3.381852 -8.811143,-3.39538 -12.215149,0.040582l-42.301342,42.638391l0,0z"/>
  </g>
 </g>
</svg>