<svg width="172" height="172" xmlns="http://www.w3.org/2000/svg">
 <style type="text/css">.st0{fill-rule:evenodd;clip-rule:evenodd;}</style>

 <g>
  <title>background</title>
  <rect x="-1" y="-1" width="174" height="174" id="canvas_background" fill="none"/>
 </g>
 <g>
  <title>Layer 1</title>
  <g id="svg_1" stroke="null">
   <path class="st0" d="m56.082179,16.663117l83.407606,0l0,31.033794l-83.407606,0l0,-31.033794l0,0zm-13.666236,75.94342c-0.768153,2.262144 -1.868789,4.090038 -3.21019,5.513977l101.430527,0l0.04586,0c3.657323,-0.181779 6.385984,-1.040182 8.208913,-2.56511c1.788534,-1.494631 2.785986,-3.726479 3.00382,-6.685445l0,-84.860713l-108.401225,0l0,80.851466c0,3.433612 0.04586,4.433399 -1.077707,7.745825l0,0l0,0l0.000002,0zm-11.774517,9.523224c-0.515923,0.030297 -1.043312,0.030297 -1.559235,0.010099c-2.086623,-0.111087 -4.138852,-0.676624 -5.996176,-1.636015c-4.070062,-2.110662 -7.211462,-6.150205 -7.498086,-11.431908c-0.011465,-0.080791 -0.02293,-0.171681 -0.02293,-0.252471l0,-71.095968c0,-1.110874 1.020382,-1.999574 2.270063,-1.999574l21.106997,0l0,-13.724349c0,-1.110874 1.020382,-1.999574 2.270063,-1.999574l112.952815,0c1.261146,0 2.270063,0.898798 2.270063,1.999574l0,86.92088c0,0.111087 -0.011465,0.212076 -0.02293,0.313065c-0.309554,3.938555 -1.777069,7.018707 -4.402546,9.220258c-2.614012,2.191452 -6.30573,3.413414 -11.086619,3.655787c-0.09172,0.010099 -0.194904,0.020198 -0.298089,0.020198l-109.98339,0l0,0l0,0l0,-0.000002zm-1.261146,-3.97895c0.11465,-0.020198 0.240764,-0.030297 0.366879,-0.030297l0.825477,0c0.905732,-0.080791 1.788534,-0.302966 2.614012,-0.686722c5.056049,-2.332836 5.755411,-8.028593 5.755411,-12.542783l0,-65.167938l-18.825469,0l0,69.086295c0,0.020198 0,0.050494 0,0.070692c0.217834,3.797171 2.430572,6.685445 5.285348,8.169977c1.238216,0.646327 2.591082,1.019985 3.932482,1.090677l0.04586,0.010099l0,0l0,0zm33.042023,-73.762067l4.471336,0l5.812736,8.604228l0,-8.604228l4.517195,0l0,15.572441l-4.517195,0l-5.778341,-8.553734l0,8.553734l-4.494265,0l0,-15.572441l-0.011465,0l-0.000001,0zm18.733749,0l12.806364,0l0,3.332623l-8.002544,0l0,2.484319l7.417831,0l0,3.171042l-7.417831,0l0,3.070053l8.243308,0l0,3.524502l-13.047128,0l0,-15.58254l0,0l0,0l0,0.000001zm14.801267,0l4.540125,0l1.628025,8.695118l2.396177,-8.695118l4.50573,0l2.407642,8.705217l1.63949,-8.705217l4.52866,0l-3.416559,15.572441l-4.68917,0l-2.717196,-9.805992l-2.705731,9.805992l-4.68917,0l-3.428024,-15.572441l0,0l0,0l0.000001,0zm23.14776,10.432121l4.540125,-0.282768c0.09172,0.737217 0.298089,1.302753 0.596178,1.686509c0.492993,0.626129 1.192356,0.939194 2.109553,0.939194c0.676433,0 1.203821,-0.161582 1.5707,-0.484745c0.366879,-0.323163 0.550318,-0.696821 0.550318,-1.120973c0,-0.403954 -0.171974,-0.767513 -0.527388,-1.080578c-0.343949,-0.323163 -1.169426,-0.61603 -2.442037,-0.898798c-2.098088,-0.474646 -3.588533,-1.100776 -4.482801,-1.888487c-0.905732,-0.787711 -1.352866,-1.787498 -1.352866,-2.999361c0,-0.79781 0.229299,-1.555224 0.687898,-2.262144c0.458599,-0.717019 1.157961,-1.272456 2.075158,-1.676411c0.928662,-0.403954 2.201273,-0.605932 3.806368,-0.605932c1.983439,0 3.485349,0.373658 4.52866,1.110874c1.043312,0.737217 1.650955,1.918783 1.857324,3.534601l-4.494265,0.272669c-0.11465,-0.70692 -0.366879,-1.221962 -0.756688,-1.545125c-0.389809,-0.323163 -0.917197,-0.484745 -1.59363,-0.484745c-0.550318,0 -0.974522,0.121186 -1.261146,0.35346c-0.286624,0.232274 -0.424204,0.525141 -0.424204,0.868502c0,0.242373 0.11465,0.464548 0.343949,0.666525c0.217834,0.201977 0.756688,0.393856 1.59363,0.575635c2.086623,0.454449 3.588533,0.908897 4.482801,1.373445c0.905732,0.464548 1.559235,1.040182 1.971974,1.726905c0.412739,0.686722 0.619108,1.454236 0.619108,2.30254c0,0.999787 -0.275159,1.918783 -0.825477,2.767087c-0.550318,0.838205 -1.318471,1.484532 -2.304458,1.918783c-0.985987,0.434251 -2.224203,0.656426 -3.726113,0.656426c-2.636941,0 -4.459871,-0.515042 -5.468787,-1.535027c-0.963057,-1.030084 -1.536305,-2.322738 -1.673885,-3.888061l0,0l0,0l0.000001,0zm-62.495513,26.630691c-1.261146,0 -2.270063,-0.898798 -2.270063,-1.999574s1.020382,-1.999574 2.270063,-1.999574l34.681513,0c1.249681,0 2.270063,0.898798 2.270063,1.999574s-1.020382,1.999574 -2.270063,1.999574l-34.681513,0l0,0zm44.633101,0c-1.261146,0 -2.281528,-0.898798 -2.281528,-2.009673c0,-1.110874 1.020382,-2.009673 2.281528,-2.009673l37.410174,0c1.261146,0 2.281528,0.898798 2.281528,2.009673c0,1.110874 -1.020382,2.009673 -2.281528,2.009673l-37.410174,0l0,0zm0,11.623787c-1.261146,0 -2.281528,-0.898798 -2.281528,-2.009673s1.020382,-2.009673 2.281528,-2.009673l37.410174,0c1.261146,0 2.281528,0.898798 2.281528,2.009673c0,1.110874 -1.020382,2.009673 -2.281528,2.009673l-37.410174,0l0,0zm0,11.623787c-1.261146,0 -2.281528,-0.898798 -2.281528,-2.009673s1.020382,-2.009673 2.281528,-2.009673l37.410174,0c1.261146,0 2.281528,0.898798 2.281528,2.009673c0,1.110874 -1.020382,2.009673 -2.281528,2.009673l-37.410174,0l0,0zm-44.633101,0c-1.261146,0 -2.270063,-0.898798 -2.270063,-1.999574s1.020382,-1.999574 2.270063,-1.999574l34.681513,0c1.249681,0 2.270063,0.898798 2.270063,1.999574s-1.020382,1.999574 -2.270063,1.999574l-34.681513,0l0,0zm1.100636,-11.623787c-1.261146,0 -2.270063,-0.898798 -2.270063,-1.999574s1.020382,-1.999574 2.270063,-1.999574l34.681513,0c1.261146,0 2.270063,0.898798 2.270063,1.999574s-1.020382,1.999574 -2.270063,1.999574l-34.681513,0l0,0z" id="svg_2" stroke="null"/>
  </g>
  <path class="st0" d="m56.08218,16.66312l83.4076,0l0,31.03379l-83.4076,0l0,-31.03379l0,0zm-13.66624,75.94342c-0.76815,2.26214 -1.86879,4.09004 -3.21019,5.51397l101.43053,0l0.04586,0c3.65732,-0.18177 6.38599,-1.04018 8.20891,-2.56511c1.78854,-1.49463 2.78599,-3.72647 3.00382,-6.68544l0,-84.86071l-108.40122,0l0,80.85146c0,3.43361 0.04586,4.4334 -1.07771,7.74583l0,0l0,0zm-11.77451,9.52322c-0.51593,0.0303 -1.04332,0.0303 -1.55924,0.0101c-2.08662,-0.11109 -4.13885,-0.67662 -5.99617,-1.63601c-4.07007,-2.11067 -7.21147,-6.15021 -7.49809,-11.43191c-0.01146,-0.08079 -0.02293,-0.17168 -0.02293,-0.25247l0,-71.09597c0,-1.11088 1.02038,-1.99958 2.27006,-1.99958l21.107,0l0,-13.72435c0,-1.11087 1.02038,-1.99957 2.27006,-1.99957l112.95282,0c1.26114,0 2.27006,0.8988 2.27006,1.99957l0,86.92088c0,0.11109 -0.01147,0.21208 -0.02293,0.31307c-0.30955,3.93855 -1.77707,7.01871 -4.40255,9.22026c-2.61401,2.19145 -6.30573,3.41341 -11.08661,3.65578c-0.09172,0.0101 -0.19491,0.0202 -0.29809,0.0202l-109.98339,0l0,0l0,0zm-1.26115,-3.97895c0.11465,-0.0202 0.24076,-0.0303 0.36688,-0.0303l0.82548,0c0.90573,-0.08079 1.78853,-0.30296 2.61401,-0.68672c5.05605,-2.33283 5.75541,-8.02859 5.75541,-12.54278l0,-65.16794l-18.82547,0l0,69.0863c0,0.02019 0,0.05049 0,0.07069c0.21783,3.79717 2.43057,6.68544 5.28535,8.16998c1.23821,0.64632 2.59108,1.01998 3.93248,1.09067l0.04586,0.0101l0,0l0,0zm33.04202,-73.76207l4.47134,0l5.81274,8.60423l0,-8.60423l4.51719,0l0,15.57245l-4.51719,0l-5.77835,-8.55374l0,8.55374l-4.49426,0l0,-15.57245l-0.01147,0zm18.73375,0l12.80637,0l0,3.33263l-8.00255,0l0,2.48432l7.41783,0l0,3.17104l-7.41783,0l0,3.07005l8.24331,0l0,3.5245l-13.04713,0l0,-15.58254l0,0l0,0zm14.80127,0l4.54013,0l1.62802,8.69512l2.39618,-8.69512l4.50573,0l2.40764,8.70522l1.63949,-8.70522l4.52866,0l-3.41656,15.57245l-4.68917,0l-2.71719,-9.806l-2.70574,9.806l-4.68917,0l-3.42802,-15.57245l0,0l0,0zm23.14776,10.43213l4.54013,-0.28277c0.09172,0.73721 0.29808,1.30275 0.59617,1.68651c0.493,0.62613 1.19236,0.93919 2.10956,0.93919c0.67643,0 1.20382,-0.16158 1.5707,-0.48474c0.36688,-0.32317 0.55032,-0.69683 0.55032,-1.12098c0,-0.40395 -0.17198,-0.76751 -0.52739,-1.08058c-0.34395,-0.32316 -1.16943,-0.61603 -2.44204,-0.89879c-2.09809,-0.47465 -3.58853,-1.10078 -4.4828,-1.88849c-0.90573,-0.78771 -1.35287,-1.7875 -1.35287,-2.99936c0,-0.79781 0.2293,-1.55523 0.6879,-2.26215c0.4586,-0.71701 1.15796,-1.27245 2.07516,-1.67641c0.92866,-0.40395 2.20127,-0.60593 3.80637,-0.60593c1.98344,0 3.48535,0.37366 4.52866,1.11088c1.04331,0.73721 1.65095,1.91878 1.85732,3.5346l-4.49426,0.27267c-0.11465,-0.70692 -0.36688,-1.22197 -0.75669,-1.54513c-0.38981,-0.32316 -0.9172,-0.48474 -1.59363,-0.48474c-0.55032,0 -0.97452,0.12118 -1.26115,0.35346c-0.28662,0.23227 -0.4242,0.52514 -0.4242,0.8685c0,0.24237 0.11465,0.46455 0.34395,0.66652c0.21783,0.20198 0.75669,0.39386 1.59363,0.57564c2.08662,0.45445 3.58853,0.90889 4.4828,1.37344c0.90573,0.46455 1.55923,1.04018 1.97197,1.72691c0.41274,0.68672 0.61911,1.45423 0.61911,2.30254c0,0.99978 -0.27516,1.91878 -0.82548,2.76708c-0.55032,0.83821 -1.31847,1.48454 -2.30445,1.91879c-0.98599,0.43425 -2.22421,0.65642 -3.72612,0.65642c-2.63694,0 -4.45987,-0.51504 -5.46878,-1.53502c-0.96306,-1.03009 -1.53631,-2.32274 -1.67389,-3.88806l0,0l0,0zm-62.49551,26.63069c-1.26115,0 -2.27007,-0.8988 -2.27007,-1.99958s1.02039,-1.99957 2.27007,-1.99957l34.68151,0c1.24968,0 2.27006,0.8988 2.27006,1.99957s-1.02038,1.99958 -2.27006,1.99958l-34.68151,0l0,0zm44.6331,0c-1.26115,0 -2.28153,-0.8988 -2.28153,-2.00968c0,-1.11087 1.02038,-2.00967 2.28153,-2.00967l37.41017,0c1.26115,0 2.28153,0.8988 2.28153,2.00967c0,1.11088 -1.02038,2.00968 -2.28153,2.00968l-37.41017,0l0,0zm0,11.62378c-1.26115,0 -2.28153,-0.89879 -2.28153,-2.00967s1.02038,-2.00967 2.28153,-2.00967l37.41017,0c1.26115,0 2.28153,0.8988 2.28153,2.00967c0,1.11088 -1.02038,2.00967 -2.28153,2.00967l-37.41017,0l0,0zm0,11.62379c-1.26115,0 -2.28153,-0.8988 -2.28153,-2.00967s1.02038,-2.00967 2.28153,-2.00967l37.41017,0c1.26115,0 2.28153,0.89879 2.28153,2.00967c0,1.11087 -1.02038,2.00967 -2.28153,2.00967l-37.41017,0l0,0zm-44.6331,0c-1.26115,0 -2.27007,-0.8988 -2.27007,-1.99957s1.02039,-1.99958 2.27007,-1.99958l34.68151,0c1.24968,0 2.27006,0.8988 2.27006,1.99958s-1.02038,1.99957 -2.27006,1.99957l-34.68151,0l0,0zm1.10063,-11.62379c-1.26114,0 -2.27006,-0.89879 -2.27006,-1.99957s1.02038,-1.99957 2.27006,-1.99957l34.68152,0c1.26114,0 2.27006,0.89879 2.27006,1.99957s-1.02038,1.99957 -2.27006,1.99957l-34.68152,0l0,0z" id="svg_3" stroke="null"/>
  <path class="st0" d="m56.08218,16.66312l83.4076,0l0,31.03379l-83.4076,0l0,-31.03379l0,0zm-13.66624,75.94342c-0.76815,2.26214 -1.86879,4.09004 -3.21019,5.51397l101.43053,0l0.04586,0c3.65732,-0.18177 6.38599,-1.04018 8.20891,-2.56511c1.78854,-1.49463 2.78599,-3.72647 3.00382,-6.68544l0,-84.86071l-108.40122,0l0,80.85146c0,3.43361 0.04586,4.4334 -1.07771,7.74583l0,0l0,0zm-11.77451,9.52322c-0.51593,0.0303 -1.04332,0.0303 -1.55924,0.0101c-2.08662,-0.11109 -4.13885,-0.67662 -5.99617,-1.63601c-4.07007,-2.11067 -7.21147,-6.15021 -7.49809,-11.43191c-0.01146,-0.08079 -0.02293,-0.17168 -0.02293,-0.25247l0,-71.09597c0,-1.11088 1.02038,-1.99958 2.27006,-1.99958l21.107,0l0,-13.72435c0,-1.11087 1.02038,-1.99957 2.27006,-1.99957l112.95282,0c1.26114,0 2.27006,0.8988 2.27006,1.99957l0,86.92088c0,0.11109 -0.01147,0.21208 -0.02293,0.31307c-0.30955,3.93855 -1.77707,7.01871 -4.40255,9.22026c-2.61401,2.19145 -6.30573,3.41341 -11.08661,3.65578c-0.09172,0.0101 -0.19491,0.0202 -0.29809,0.0202l-109.98339,0l0,0l0,0zm-1.26115,-3.97895c0.11465,-0.0202 0.24076,-0.0303 0.36688,-0.0303l0.82548,0c0.90573,-0.08079 1.78853,-0.30296 2.61401,-0.68672c5.05605,-2.33283 5.75541,-8.02859 5.75541,-12.54278l0,-65.16794l-18.82547,0l0,69.0863c0,0.02019 0,0.05049 0,0.07069c0.21783,3.79717 2.43057,6.68544 5.28535,8.16998c1.23821,0.64632 2.59108,1.01998 3.93248,1.09067l0.04586,0.0101l0,0l0,0zm33.04202,-73.76207l4.47134,0l5.81274,8.60423l0,-8.60423l4.51719,0l0,15.57245l-4.51719,0l-5.77835,-8.55374l0,8.55374l-4.49426,0l0,-15.57245l-0.01147,0zm18.73375,0l12.80637,0l0,3.33263l-8.00255,0l0,2.48432l7.41783,0l0,3.17104l-7.41783,0l0,3.07005l8.24331,0l0,3.5245l-13.04713,0l0,-15.58254l0,0l0,0zm14.80127,0l4.54013,0l1.62802,8.69512l2.39618,-8.69512l4.50573,0l2.40764,8.70522l1.63949,-8.70522l4.52866,0l-3.41656,15.57245l-4.68917,0l-2.71719,-9.806l-2.70574,9.806l-4.68917,0l-3.42802,-15.57245l0,0l0,0zm23.14776,10.43213l4.54013,-0.28277c0.09172,0.73721 0.29808,1.30275 0.59617,1.68651c0.493,0.62613 1.19236,0.93919 2.10956,0.93919c0.67643,0 1.20382,-0.16158 1.5707,-0.48474c0.36688,-0.32317 0.55032,-0.69683 0.55032,-1.12098c0,-0.40395 -0.17198,-0.76751 -0.52739,-1.08058c-0.34395,-0.32316 -1.16943,-0.61603 -2.44204,-0.89879c-2.09809,-0.47465 -3.58853,-1.10078 -4.4828,-1.88849c-0.90573,-0.78771 -1.35287,-1.7875 -1.35287,-2.99936c0,-0.79781 0.2293,-1.55523 0.6879,-2.26215c0.4586,-0.71701 1.15796,-1.27245 2.07516,-1.67641c0.92866,-0.40395 2.20127,-0.60593 3.80637,-0.60593c1.98344,0 3.48535,0.37366 4.52866,1.11088c1.04331,0.73721 1.65095,1.91878 1.85732,3.5346l-4.49426,0.27267c-0.11465,-0.70692 -0.36688,-1.22197 -0.75669,-1.54513c-0.38981,-0.32316 -0.9172,-0.48474 -1.59363,-0.48474c-0.55032,0 -0.97452,0.12118 -1.26115,0.35346c-0.28662,0.23227 -0.4242,0.52514 -0.4242,0.8685c0,0.24237 0.11465,0.46455 0.34395,0.66652c0.21783,0.20198 0.75669,0.39386 1.59363,0.57564c2.08662,0.45445 3.58853,0.90889 4.4828,1.37344c0.90573,0.46455 1.55923,1.04018 1.97197,1.72691c0.41274,0.68672 0.61911,1.45423 0.61911,2.30254c0,0.99978 -0.27516,1.91878 -0.82548,2.76708c-0.55032,0.83821 -1.31847,1.48454 -2.30445,1.91879c-0.98599,0.43425 -2.22421,0.65642 -3.72612,0.65642c-2.63694,0 -4.45987,-0.51504 -5.46878,-1.53502c-0.96306,-1.03009 -1.53631,-2.32274 -1.67389,-3.88806l0,0l0,0zm-62.49551,26.63069c-1.26115,0 -2.27007,-0.8988 -2.27007,-1.99958s1.02039,-1.99957 2.27007,-1.99957l34.68151,0c1.24968,0 2.27006,0.8988 2.27006,1.99957s-1.02038,1.99958 -2.27006,1.99958l-34.68151,0l0,0zm44.6331,0c-1.26115,0 -2.28153,-0.8988 -2.28153,-2.00968c0,-1.11087 1.02038,-2.00967 2.28153,-2.00967l37.41017,0c1.26115,0 2.28153,0.8988 2.28153,2.00967c0,1.11088 -1.02038,2.00968 -2.28153,2.00968l-37.41017,0l0,0zm0,11.62378c-1.26115,0 -2.28153,-0.89879 -2.28153,-2.00967s1.02038,-2.00967 2.28153,-2.00967l37.41017,0c1.26115,0 2.28153,0.8988 2.28153,2.00967c0,1.11088 -1.02038,2.00967 -2.28153,2.00967l-37.41017,0l0,0zm0,11.62379c-1.26115,0 -2.28153,-0.8988 -2.28153,-2.00967s1.02038,-2.00967 2.28153,-2.00967l37.41017,0c1.26115,0 2.28153,0.89879 2.28153,2.00967c0,1.11087 -1.02038,2.00967 -2.28153,2.00967l-37.41017,0l0,0zm-44.6331,0c-1.26115,0 -2.27007,-0.8988 -2.27007,-1.99957s1.02039,-1.99958 2.27007,-1.99958l34.68151,0c1.24968,0 2.27006,0.8988 2.27006,1.99958s-1.02038,1.99957 -2.27006,1.99957l-34.68151,0l0,0zm1.10063,-11.62379c-1.26114,0 -2.27006,-0.89879 -2.27006,-1.99957s1.02038,-1.99957 2.27006,-1.99957l34.68152,0c1.26114,0 2.27006,0.89879 2.27006,1.99957s-1.02038,1.99957 -2.27006,1.99957l-34.68152,0l0,0z" id="svg_4" stroke="null"/>
  <path class="st0" d="m56.08218,16.66312l83.4076,0l0,31.03379l-83.4076,0l0,-31.03379l0,0zm-13.66624,75.94342c-0.76815,2.26214 -1.86879,4.09004 -3.21019,5.51397l101.43053,0l0.04586,0c3.65732,-0.18177 6.38599,-1.04018 8.20891,-2.56511c1.78854,-1.49463 2.78599,-3.72647 3.00382,-6.68544l0,-84.86071l-108.40122,0l0,80.85146c0,3.43361 0.04586,4.4334 -1.07771,7.74583l0,0l0,0zm-11.77451,9.52322c-0.51593,0.0303 -1.04332,0.0303 -1.55924,0.0101c-2.08662,-0.11109 -4.13885,-0.67662 -5.99617,-1.63601c-4.07007,-2.11067 -7.21147,-6.15021 -7.49809,-11.43191c-0.01146,-0.08079 -0.02293,-0.17168 -0.02293,-0.25247l0,-71.09597c0,-1.11088 1.02038,-1.99958 2.27006,-1.99958l21.107,0l0,-13.72435c0,-1.11087 1.02038,-1.99957 2.27006,-1.99957l112.95282,0c1.26114,0 2.27006,0.8988 2.27006,1.99957l0,86.92088c0,0.11109 -0.01147,0.21208 -0.02293,0.31307c-0.30955,3.93855 -1.77707,7.01871 -4.40255,9.22026c-2.61401,2.19145 -6.30573,3.41341 -11.08661,3.65578c-0.09172,0.0101 -0.19491,0.0202 -0.29809,0.0202l-109.98339,0l0,0l0,0zm-1.26115,-3.97895c0.11465,-0.0202 0.24076,-0.0303 0.36688,-0.0303l0.82548,0c0.90573,-0.08079 1.78853,-0.30296 2.61401,-0.68672c5.05605,-2.33283 5.75541,-8.02859 5.75541,-12.54278l0,-65.16794l-18.82547,0l0,69.0863c0,0.02019 0,0.05049 0,0.07069c0.21783,3.79717 2.43057,6.68544 5.28535,8.16998c1.23821,0.64632 2.59108,1.01998 3.93248,1.09067l0.04586,0.0101l0,0l0,0zm33.04202,-73.76207l4.47134,0l5.81274,8.60423l0,-8.60423l4.51719,0l0,15.57245l-4.51719,0l-5.77835,-8.55374l0,8.55374l-4.49426,0l0,-15.57245l-0.01147,0zm18.73375,0l12.80637,0l0,3.33263l-8.00255,0l0,2.48432l7.41783,0l0,3.17104l-7.41783,0l0,3.07005l8.24331,0l0,3.5245l-13.04713,0l0,-15.58254l0,0l0,0zm14.80127,0l4.54013,0l1.62802,8.69512l2.39618,-8.69512l4.50573,0l2.40764,8.70522l1.63949,-8.70522l4.52866,0l-3.41656,15.57245l-4.68917,0l-2.71719,-9.806l-2.70574,9.806l-4.68917,0l-3.42802,-15.57245l0,0l0,0zm23.14776,10.43213l4.54013,-0.28277c0.09172,0.73721 0.29808,1.30275 0.59617,1.68651c0.493,0.62613 1.19236,0.93919 2.10956,0.93919c0.67643,0 1.20382,-0.16158 1.5707,-0.48474c0.36688,-0.32317 0.55032,-0.69683 0.55032,-1.12098c0,-0.40395 -0.17198,-0.76751 -0.52739,-1.08058c-0.34395,-0.32316 -1.16943,-0.61603 -2.44204,-0.89879c-2.09809,-0.47465 -3.58853,-1.10078 -4.4828,-1.88849c-0.90573,-0.78771 -1.35287,-1.7875 -1.35287,-2.99936c0,-0.79781 0.2293,-1.55523 0.6879,-2.26215c0.4586,-0.71701 1.15796,-1.27245 2.07516,-1.67641c0.92866,-0.40395 2.20127,-0.60593 3.80637,-0.60593c1.98344,0 3.48535,0.37366 4.52866,1.11088c1.04331,0.73721 1.65095,1.91878 1.85732,3.5346l-4.49426,0.27267c-0.11465,-0.70692 -0.36688,-1.22197 -0.75669,-1.54513c-0.38981,-0.32316 -0.9172,-0.48474 -1.59363,-0.48474c-0.55032,0 -0.97452,0.12118 -1.26115,0.35346c-0.28662,0.23227 -0.4242,0.52514 -0.4242,0.8685c0,0.24237 0.11465,0.46455 0.34395,0.66652c0.21783,0.20198 0.75669,0.39386 1.59363,0.57564c2.08662,0.45445 3.58853,0.90889 4.4828,1.37344c0.90573,0.46455 1.55923,1.04018 1.97197,1.72691c0.41274,0.68672 0.61911,1.45423 0.61911,2.30254c0,0.99978 -0.27516,1.91878 -0.82548,2.76708c-0.55032,0.83821 -1.31847,1.48454 -2.30445,1.91879c-0.98599,0.43425 -2.22421,0.65642 -3.72612,0.65642c-2.63694,0 -4.45987,-0.51504 -5.46878,-1.53502c-0.96306,-1.03009 -1.53631,-2.32274 -1.67389,-3.88806l0,0l0,0zm-62.49551,26.63069c-1.26115,0 -2.27007,-0.8988 -2.27007,-1.99958s1.02039,-1.99957 2.27007,-1.99957l34.68151,0c1.24968,0 2.27006,0.8988 2.27006,1.99957s-1.02038,1.99958 -2.27006,1.99958l-34.68151,0l0,0zm44.6331,0c-1.26115,0 -2.28153,-0.8988 -2.28153,-2.00968c0,-1.11087 1.02038,-2.00967 2.28153,-2.00967l37.41017,0c1.26115,0 2.28153,0.8988 2.28153,2.00967c0,1.11088 -1.02038,2.00968 -2.28153,2.00968l-37.41017,0l0,0zm0,11.62378c-1.26115,0 -2.28153,-0.89879 -2.28153,-2.00967s1.02038,-2.00967 2.28153,-2.00967l37.41017,0c1.26115,0 2.28153,0.8988 2.28153,2.00967c0,1.11088 -1.02038,2.00967 -2.28153,2.00967l-37.41017,0l0,0zm0,11.62379c-1.26115,0 -2.28153,-0.8988 -2.28153,-2.00967s1.02038,-2.00967 2.28153,-2.00967l37.41017,0c1.26115,0 2.28153,0.89879 2.28153,2.00967c0,1.11087 -1.02038,2.00967 -2.28153,2.00967l-37.41017,0l0,0zm-44.6331,0c-1.26115,0 -2.27007,-0.8988 -2.27007,-1.99957s1.02039,-1.99958 2.27007,-1.99958l34.68151,0c1.24968,0 2.27006,0.8988 2.27006,1.99958s-1.02038,1.99957 -2.27006,1.99957l-34.68151,0l0,0zm1.10063,-11.62379c-1.26114,0 -2.27006,-0.89879 -2.27006,-1.99957s1.02038,-1.99957 2.27006,-1.99957l34.68152,0c1.26114,0 2.27006,0.89879 2.27006,1.99957s-1.02038,1.99957 -2.27006,1.99957l-34.68152,0l0,0z" id="svg_5" stroke="null"/>
  <path class="st0" d="m56.08218,16.66312l83.4076,0l0,31.03379l-83.4076,0l0,-31.03379l0,0zm-13.66624,75.94342c-0.76815,2.26214 -1.86879,4.09004 -3.21019,5.51397l101.43053,0l0.04586,0c3.65732,-0.18177 6.38599,-1.04018 8.20891,-2.56511c1.78854,-1.49463 2.78599,-3.72647 3.00382,-6.68544l0,-84.86071l-108.40122,0l0,80.85146c0,3.43361 0.04586,4.4334 -1.07771,7.74583l0,0l0,0zm-11.77451,9.52322c-0.51593,0.0303 -1.04332,0.0303 -1.55924,0.0101c-2.08662,-0.11109 -4.13885,-0.67662 -5.99617,-1.63601c-4.07007,-2.11067 -7.21147,-6.15021 -7.49809,-11.43191c-0.01146,-0.08079 -0.02293,-0.17168 -0.02293,-0.25247l0,-71.09597c0,-1.11088 1.02038,-1.99958 2.27006,-1.99958l21.107,0l0,-13.72435c0,-1.11087 1.02038,-1.99957 2.27006,-1.99957l112.95282,0c1.26114,0 2.27006,0.8988 2.27006,1.99957l0,86.92088c0,0.11109 -0.01147,0.21208 -0.02293,0.31307c-0.30955,3.93855 -1.77707,7.01871 -4.40255,9.22026c-2.61401,2.19145 -6.30573,3.41341 -11.08661,3.65578c-0.09172,0.0101 -0.19491,0.0202 -0.29809,0.0202l-109.98339,0l0,0l0,0zm-1.26115,-3.97895c0.11465,-0.0202 0.24076,-0.0303 0.36688,-0.0303l0.82548,0c0.90573,-0.08079 1.78853,-0.30296 2.61401,-0.68672c5.05605,-2.33283 5.75541,-8.02859 5.75541,-12.54278l0,-65.16794l-18.82547,0l0,69.0863c0,0.02019 0,0.05049 0,0.07069c0.21783,3.79717 2.43057,6.68544 5.28535,8.16998c1.23821,0.64632 2.59108,1.01998 3.93248,1.09067l0.04586,0.0101l0,0l0,0zm33.04202,-73.76207l4.47134,0l5.81274,8.60423l0,-8.60423l4.51719,0l0,15.57245l-4.51719,0l-5.77835,-8.55374l0,8.55374l-4.49426,0l0,-15.57245l-0.01147,0zm18.73375,0l12.80637,0l0,3.33263l-8.00255,0l0,2.48432l7.41783,0l0,3.17104l-7.41783,0l0,3.07005l8.24331,0l0,3.5245l-13.04713,0l0,-15.58254l0,0l0,0zm14.80127,0l4.54013,0l1.62802,8.69512l2.39618,-8.69512l4.50573,0l2.40764,8.70522l1.63949,-8.70522l4.52866,0l-3.41656,15.57245l-4.68917,0l-2.71719,-9.806l-2.70574,9.806l-4.68917,0l-3.42802,-15.57245l0,0l0,0zm23.14776,10.43213l4.54013,-0.28277c0.09172,0.73721 0.29808,1.30275 0.59617,1.68651c0.493,0.62613 1.19236,0.93919 2.10956,0.93919c0.67643,0 1.20382,-0.16158 1.5707,-0.48474c0.36688,-0.32317 0.55032,-0.69683 0.55032,-1.12098c0,-0.40395 -0.17198,-0.76751 -0.52739,-1.08058c-0.34395,-0.32316 -1.16943,-0.61603 -2.44204,-0.89879c-2.09809,-0.47465 -3.58853,-1.10078 -4.4828,-1.88849c-0.90573,-0.78771 -1.35287,-1.7875 -1.35287,-2.99936c0,-0.79781 0.2293,-1.55523 0.6879,-2.26215c0.4586,-0.71701 1.15796,-1.27245 2.07516,-1.67641c0.92866,-0.40395 2.20127,-0.60593 3.80637,-0.60593c1.98344,0 3.48535,0.37366 4.52866,1.11088c1.04331,0.73721 1.65095,1.91878 1.85732,3.5346l-4.49426,0.27267c-0.11465,-0.70692 -0.36688,-1.22197 -0.75669,-1.54513c-0.38981,-0.32316 -0.9172,-0.48474 -1.59363,-0.48474c-0.55032,0 -0.97452,0.12118 -1.26115,0.35346c-0.28662,0.23227 -0.4242,0.52514 -0.4242,0.8685c0,0.24237 0.11465,0.46455 0.34395,0.66652c0.21783,0.20198 0.75669,0.39386 1.59363,0.57564c2.08662,0.45445 3.58853,0.90889 4.4828,1.37344c0.90573,0.46455 1.55923,1.04018 1.97197,1.72691c0.41274,0.68672 0.61911,1.45423 0.61911,2.30254c0,0.99978 -0.27516,1.91878 -0.82548,2.76708c-0.55032,0.83821 -1.31847,1.48454 -2.30445,1.91879c-0.98599,0.43425 -2.22421,0.65642 -3.72612,0.65642c-2.63694,0 -4.45987,-0.51504 -5.46878,-1.53502c-0.96306,-1.03009 -1.53631,-2.32274 -1.67389,-3.88806l0,0l0,0zm-62.49551,26.63069c-1.26115,0 -2.27007,-0.8988 -2.27007,-1.99958s1.02039,-1.99957 2.27007,-1.99957l34.68151,0c1.24968,0 2.27006,0.8988 2.27006,1.99957s-1.02038,1.99958 -2.27006,1.99958l-34.68151,0l0,0zm44.6331,0c-1.26115,0 -2.28153,-0.8988 -2.28153,-2.00968c0,-1.11087 1.02038,-2.00967 2.28153,-2.00967l37.41017,0c1.26115,0 2.28153,0.8988 2.28153,2.00967c0,1.11088 -1.02038,2.00968 -2.28153,2.00968l-37.41017,0l0,0zm0,11.62378c-1.26115,0 -2.28153,-0.89879 -2.28153,-2.00967s1.02038,-2.00967 2.28153,-2.00967l37.41017,0c1.26115,0 2.28153,0.8988 2.28153,2.00967c0,1.11088 -1.02038,2.00967 -2.28153,2.00967l-37.41017,0l0,0zm0,11.62379c-1.26115,0 -2.28153,-0.8988 -2.28153,-2.00967s1.02038,-2.00967 2.28153,-2.00967l37.41017,0c1.26115,0 2.28153,0.89879 2.28153,2.00967c0,1.11087 -1.02038,2.00967 -2.28153,2.00967l-37.41017,0l0,0zm-44.6331,0c-1.26115,0 -2.27007,-0.8988 -2.27007,-1.99957s1.02039,-1.99958 2.27007,-1.99958l34.68151,0c1.24968,0 2.27006,0.8988 2.27006,1.99958s-1.02038,1.99957 -2.27006,1.99957l-34.68151,0l0,0zm1.10063,-11.62379c-1.26114,0 -2.27006,-0.89879 -2.27006,-1.99957s1.02038,-1.99957 2.27006,-1.99957l34.68152,0c1.26114,0 2.27006,0.89879 2.27006,1.99957s-1.02038,1.99957 -2.27006,1.99957l-34.68152,0l0,0z" id="svg_6" stroke="null"/>
  <text fill="#000000" stroke="null" stroke-width="0" stroke-opacity="null" fill-opacity="null" x="34.715" y="159.81" id="svg_7" font-size="45" font-family="Helvetica, Arial, sans-serif" text-anchor="start" xml:space="preserve">Feed</text>
  <rect id="svg_8" height="25" width="76" y="19.81" x="59.5" stroke-width="0.001" stroke="#FF0000" fill="#000"/>
 </g>
</svg>