<svg width="172" height="172" xmlns="http://www.w3.org/2000/svg">

 <g>
  <title>background</title>
  <rect fill="none" id="canvas_background" height="174" width="174" y="-1" x="-1"/>
 </g>
 <g>
  <title>Layer 1</title>
  <g stroke="null" id="svg_1">
   <path stroke="null" id="svg_2" d="m27.361908,0l117.276186,0c2.851764,0 5.151909,1.768303 5.151909,3.942838l0,89.984325c0,2.1825 -2.310553,3.942838 -5.151909,3.942838c-1.425882,0 -2.716461,-0.446058 -3.653172,-1.162938l-55.120224,-36.337832l-55.14104,36.536965c-2.144027,1.417829 -5.391291,1.242591 -7.254304,-0.398266c-0.84304,-0.740776 -1.248948,-1.664754 -1.248948,-2.572801l-0.010408,0l0,-89.99229c0,-2.174535 2.310553,-3.942838 5.151909,-3.942838l0,0zm112.124277,7.893641l-106.96196,0l0,77.423l49.926683,-33.087978c1.894237,-1.290383 4.798041,-1.338175 6.775541,-0.031861l50.270144,33.143735l0,-77.446896l-0.010408,0z"/>
  </g>
  <text xml:space="preserve" text-anchor="start" font-family="Helvetica, Arial, sans-serif" font-size="45" id="svg_3" y="160.81" x="22.200001" fill-opacity="null" stroke-opacity="null" stroke-width="0" stroke="null" fill="#000000">Saved</text>
 </g>
</svg>