<svg width="152" height="152" xmlns="http://www.w3.org/2000/svg">
 <style type="text/css">.st0{fill-rule:evenodd;clip-rule:evenodd;}</style>

 <g>
  <title>background</title>
  <rect x="-1" y="-1" width="154" height="154" id="canvas_background" fill="none"/>
 </g>
 <g>
  <title>Layer 1</title>
  <g id="svg_1">
   <path class="st0" d="m49.905003,16.5l72.75,0l0,30.73l-72.75,0l0,-30.73l0,0zm-11.92,75.2c-0.67,2.24 -1.63,4.05 -2.8,5.46l88.47,0l0.04,0c3.19,-0.18 5.57,-1.03 7.16,-2.54c1.56,-1.48 2.43,-3.69 2.62,-6.62l0,-84.03l-94.55,0l0,80.06c0,3.4 0.04,4.39 -0.94,7.67l0,0l0,0zm-10.27,9.43c-0.45,0.03 -0.91,0.03 -1.36,0.01c-1.82,-0.11 -3.61,-0.67 -5.23,-1.62c-3.55,-2.09 -6.29,-6.09 -6.54,-11.32c-0.01,-0.08 -0.02,-0.17 -0.02,-0.25l0,-70.4c0,-1.1 0.89,-1.98 1.98,-1.98l18.41,0l0,-13.59c0,-1.1 0.89,-1.98 1.98,-1.98l98.52,0c1.1,0 1.98,0.89 1.98,1.98l0,86.07c0,0.11 -0.01,0.21 -0.02,0.31c-0.27,3.9 -1.55,6.95 -3.84,9.13c-2.28,2.17 -5.5,3.38 -9.67,3.62c-0.08,0.01 -0.17,0.02 -0.26,0.02l-95.93,0l0,0l0,0zm-1.1,-3.94c0.1,-0.02 0.21,-0.03 0.32,-0.03l0.72,0c0.79,-0.08 1.56,-0.3 2.28,-0.68c4.41,-2.31 5.02,-7.95 5.02,-12.42l0,-64.53l-16.42,0l0,68.41c0,0.02 0,0.05 0,0.07c0.19,3.76 2.12,6.62 4.61,8.09c1.08,0.64 2.26,1.01 3.43,1.08l0.04,0.01l0,0l0,0zm28.82,-73.04l3.9,0l5.07,8.52l0,-8.52l3.94,0l0,15.42l-3.94,0l-5.04,-8.47l0,8.47l-3.92,0l0,-15.42l-0.01,0zm16.34,0l11.17,0l0,3.3l-6.98,0l0,2.46l6.47,0l0,3.14l-6.47,0l0,3.04l7.19,0l0,3.49l-11.38,0l0,-15.43l0,0l0,0zm12.91,0l3.96,0l1.42,8.61l2.09,-8.61l3.93,0l2.1,8.62l1.43,-8.62l3.95,0l-2.98,15.42l-4.09,0l-2.37,-9.71l-2.36,9.71l-4.09,0l-2.99,-15.42l0,0l0,0zm20.19,10.33l3.96,-0.28c0.08,0.73 0.26,1.29 0.52,1.67c0.43,0.62 1.04,0.93 1.84,0.93c0.59,0 1.05,-0.16 1.37,-0.48c0.32,-0.32 0.48,-0.69 0.48,-1.11c0,-0.4 -0.15,-0.76 -0.46,-1.07c-0.3,-0.32 -1.02,-0.61 -2.13,-0.89c-1.83,-0.47 -3.13,-1.09 -3.91,-1.87c-0.79,-0.78 -1.18,-1.77 -1.18,-2.97c0,-0.79 0.2,-1.54 0.6,-2.24c0.4,-0.71 1.01,-1.26 1.81,-1.66c0.81,-0.4 1.92,-0.6 3.32,-0.6c1.73,0 3.04,0.37 3.95,1.1c0.91,0.73 1.44,1.9 1.62,3.5l-3.92,0.27c-0.1,-0.7 -0.32,-1.21 -0.66,-1.53c-0.34,-0.32 -0.8,-0.48 -1.39,-0.48c-0.48,0 -0.85,0.12 -1.1,0.35c-0.25,0.23 -0.37,0.52 -0.37,0.86c0,0.24 0.1,0.46 0.3,0.66c0.19,0.2 0.66,0.39 1.39,0.57c1.82,0.45 3.13,0.9 3.91,1.36c0.79,0.46 1.36,1.03 1.72,1.71c0.36,0.68 0.54,1.44 0.54,2.28c0,0.99 -0.24,1.9 -0.72,2.74c-0.48,0.83 -1.15,1.47 -2.01,1.9c-0.86,0.43 -1.94,0.65 -3.25,0.65c-2.3,0 -3.89,-0.51 -4.77,-1.52c-0.84,-1.02 -1.34,-2.3 -1.46,-3.85l0,0l0,0zm-54.51,26.37c-1.1,0 -1.98,-0.89 -1.98,-1.98s0.89,-1.98 1.98,-1.98l30.25,0c1.09,0 1.98,0.89 1.98,1.98s-0.89,1.98 -1.98,1.98l-30.25,0l0,0zm38.93,0c-1.1,0 -1.99,-0.89 -1.99,-1.99c0,-1.1 0.89,-1.99 1.99,-1.99l32.63,0c1.1,0 1.99,0.89 1.99,1.99c0,1.1 -0.89,1.99 -1.99,1.99l-32.63,0l0,0zm0,11.51c-1.1,0 -1.99,-0.89 -1.99,-1.99s0.89,-1.99 1.99,-1.99l32.63,0c1.1,0 1.99,0.89 1.99,1.99c0,1.1 -0.89,1.99 -1.99,1.99l-32.63,0l0,0zm0,11.51c-1.1,0 -1.99,-0.89 -1.99,-1.99s0.89,-1.99 1.99,-1.99l32.63,0c1.1,0 1.99,0.89 1.99,1.99c0,1.1 -0.89,1.99 -1.99,1.99l-32.63,0l0,0zm-38.93,0c-1.1,0 -1.98,-0.89 -1.98,-1.98s0.89,-1.98 1.98,-1.98l30.25,0c1.09,0 1.98,0.89 1.98,1.98s-0.89,1.98 -1.98,1.98l-30.25,0l0,0zm0.96,-11.51c-1.1,0 -1.98,-0.89 -1.98,-1.98s0.89,-1.98 1.98,-1.98l30.25,0c1.1,0 1.98,0.89 1.98,1.98s-0.89,1.98 -1.98,1.98l-30.25,0l0,0z" id="svg_2"/>
  </g>
  <text style="cursor: move;" fill="#000000" stroke="#FF0000" stroke-width="0" x="31.549999" y="151.999994" id="svg_4" font-size="39" font-family="Helvetica, Arial, sans-serif" text-anchor="start" xml:space="preserve">Feed</text>
 </g>
</svg>