<svg width="122.88000000000001" height="122.88000000000001" xmlns="http://www.w3.org/2000/svg">
 <title>share-square-line</title>

 <g>
  <title>background</title>
  <rect x="-1" y="-1" width="124.88" height="124.88" id="canvas_background" fill="none"/>
 </g>
 <g>
  <title>Layer 1</title>
  <text style="cursor: move;" fill="#000000" stroke-width="0" stroke-opacity="null" fill-opacity="null" x="17.263378" y="83.066463" id="svg_3" font-size="75" font-family="'Times New Roman', Times, serif" text-anchor="start" xml:space="preserve" stroke="null" font-weight="bold">A</text>
  <text fill="#000000" stroke="null" stroke-width="0" stroke-opacity="null" fill-opacity="null" x="77.562388" y="82.531845" id="svg_4" font-size="35" font-family="'Times New Roman', Times, serif" text-anchor="start" xml:space="preserve" font-weight="bold">A</text>
  <rect stroke="#FF0000" transform="rotate(50.068641662597656 1.5024625062942503,7.432056427001952) " id="svg_2" height="62.956596" width="21.14941" y="-24.04624" x="-9.072242" stroke-width="0.001" fill="#ffffff"/>
  <rect stroke="#FF0000" transform="rotate(-40 121.73226165771487,6.9722862243652335) " id="svg_5" height="62.956596" width="21.14941" y="-24.506011" x="111.157557" stroke-width="0.001" fill="#ffffff"/>
  <rect stroke="#FF0000" transform="rotate(50 120.3529510498047,117.54692077636719) " id="svg_6" height="62.956596" width="21.14941" y="86.068624" x="109.778247" stroke-width="0.001" fill="#ffffff"/>
  <rect stroke="#FF0000" transform="rotate(135 3.5714292526245117,118.23657989501953) " id="svg_7" height="62.956596" width="21.14941" y="86.758279" x="-7.003276" stroke-width="0.001" fill="#ffffff"/>
  <path d="m23.15,0l76.58,0a23.07,23.07 0 0 1 16.34,6.8l0,0a23.09,23.09 0 0 1 6.8,16.34l0,76.59a23.07,23.07 0 0 1 -6.8,16.34l0,0a23.09,23.09 0 0 1 -16.34,6.8l-76.58,0a23.07,23.07 0 0 1 -16.34,-6.8l0,0a23.09,23.09 0 0 1 -6.81,-16.34l0,-76.58a23.07,23.07 0 0 1 6.8,-16.34l0,0a23.11,23.11 0 0 1 16.35,-6.81zm76.58,9.34l-76.58,0a13.76,13.76 0 0 0 -9.75,4l0,0a13.76,13.76 0 0 0 -4,9.75l0,76.64a13.76,13.76 0 0 0 4,9.75l0,0a13.76,13.76 0 0 0 9.75,4l76.58,0a13.76,13.76 0 0 0 9.75,-4l0,0a13.76,13.76 0 0 0 4,-9.75l0,-76.58a13.76,13.76 0 0 0 -4,-9.75l0,0a13.76,13.76 0 0 0 -9.75,-4l0,-0.06z" id="svg_1"/>
 </g>
</svg>