<svg width="122.88000000000001" height="122.88000000000001" xmlns="http://www.w3.org/2000/svg">
 <title>share-square-line</title>

 <g>
  <title>background</title>
  <rect fill="none" id="canvas_background" height="514" width="514" y="-1" x="-1"/>
 </g>
 <g>
  <title>Layer 1</title>
  <path id="svg_1" d="m23.15,0l76.58,0a23.07,23.07 0 0 1 16.34,6.8l0,0a23.09,23.09 0 0 1 6.8,16.34l0,76.59a23.07,23.07 0 0 1 -6.8,16.34l0,0a23.09,23.09 0 0 1 -16.34,6.8l-76.58,0a23.07,23.07 0 0 1 -16.34,-6.8l0,0a23.09,23.09 0 0 1 -6.81,-16.34l0,-76.58a23.07,23.07 0 0 1 6.8,-16.34l0,0a23.11,23.11 0 0 1 16.35,-6.81zm76.58,9.34l-76.58,0a13.76,13.76 0 0 0 -9.75,4l0,0a13.76,13.76 0 0 0 -4,9.75l0,76.64a13.76,13.76 0 0 0 4,9.75l0,0a13.76,13.76 0 0 0 9.75,4l76.58,0a13.76,13.76 0 0 0 9.75,-4l0,0a13.76,13.76 0 0 0 4,-9.75l0,-76.58a13.76,13.76 0 0 0 -4,-9.75l0,0a13.76,13.76 0 0 0 -9.75,-4l0,-0.06z"/>
  <text font-weight="bold" stroke="null" xml:space="preserve" text-anchor="start" font-family="'Times New Roman', Times, serif" font-size="75" id="svg_3" y="83.066463" x="17.263378" fill-opacity="null" stroke-opacity="null" stroke-width="0" fill="#000000">A</text>
  <text font-weight="bold" xml:space="preserve" text-anchor="start" font-family="'Times New Roman', Times, serif" font-size="35" id="svg_4" y="83.2215" x="77.102618" fill-opacity="null" stroke-opacity="null" stroke-width="0" stroke="null" fill="#000000">A</text>
 </g>
</svg>